<svg xmlns="http://www.w3.org/2000/svg" xmlns:xlink="http://www.w3.org/1999/xlink"><defs><clipPath id="clip0_248_2546"><rect width="15" height="14" fill="currentColor"/></clipPath><clipPath id="clip0_248_2542"><rect width="15" height="14" fill="currentColor"/></clipPath><clipPath id="clip0_1101_155"><rect width="12" height="12" fill="currentColor"/></clipPath><clipPath id="clip0_248_2190"><rect width="25" height="25" fill="white"/></clipPath><clipPath id="clip0_1101_151"><rect width="12" height="12" fill="currentColor"/></clipPath><clipPath id="clip0_248_2161"><rect width="25" height="25" fill="white"/></clipPath><clipPath id="clip0_131_2519"><rect width="22" height="22" fill="white"/></clipPath><clipPath id="clip0_131_2514"><rect width="22" height="22" fill="white"/></clipPath><clipPath id="clip0_248_2173"><rect width="23" height="23" fill="white"/></clipPath></defs><symbol id="address" viewBox="0 0 22 22"><g fill="none"><path d="M18.5 8.14732C18.5 4.19996 15.1421 1 11 1C6.85786 1 3.5 4.19996 3.5 8.14732V8.57782C3.5 10.1572 4.01784 11.6971 4.98114 12.9823L10.9852 20.9927C10.9924 21.0024 11.0076 21.0024 11.0148 20.9927L17.0189 12.9823C17.9822 11.6971 18.5 10.1572 18.5 8.57782V8.14732Z" stroke="currentColor" stroke-linecap="round" stroke-linejoin="round"/><path d="M9.53407 5.28903C10.4604 4.86389 11.5396 4.86389 12.4659 5.28903C13.3923 5.71417 14.0651 6.51818 14.2939 7.47347C14.5227 8.42875 14.2826 9.43134 13.6415 10.1974C13.0004 10.9635 12.0282 11.4097 11 11.4097C9.9718 11.4097 8.99955 10.9635 8.35848 10.1974C7.7174 9.43134 7.47728 8.42875 7.70608 7.47347C7.93487 6.51818 8.60769 5.71417 9.53407 5.28903Z" stroke="currentColor" stroke-linecap="round" stroke-linejoin="round"/></g></symbol><symbol id="arrow-left" viewBox="0 0 14 8"><g fill="none"><path d="M0.646446 4.35355C0.451184 4.15829 0.451184 3.84171 0.646446 3.64645L3.82843 0.464466C4.02369 0.269204 4.34027 0.269204 4.53553 0.464466C4.7308 0.659728 4.7308 0.976311 4.53553 1.17157L1.70711 4L4.53553 6.82843C4.7308 7.02369 4.7308 7.34027 4.53553 7.53553C4.34027 7.7308 4.02369 7.7308 3.82843 7.53553L0.646446 4.35355ZM14 4.5H1V3.5H14V4.5Z" fill="currentColor"/></g></symbol><symbol id="arrow-right" viewBox="0 0 14 8"><g fill="none"><path d="M13.3536 4.35355C13.5488 4.15829 13.5488 3.84171 13.3536 3.64645L10.1716 0.464466C9.97631 0.269204 9.65973 0.269204 9.46447 0.464466C9.2692 0.659728 9.2692 0.976311 9.46447 1.17157L12.2929 4L9.46447 6.82843C9.2692 7.02369 9.2692 7.34027 9.46447 7.53553C9.65973 7.7308 9.97631 7.7308 10.1716 7.53553L13.3536 4.35355ZM0 4.5H13V3.5H0V4.5Z" fill="currentColor"/></g></symbol><symbol id="boots" viewBox="0 0 22 22"><g fill="none"><path d="M20.7153 14.2434C21.3367 12.1487 20.8254 9.77108 20.2821 8.12359C20.2785 8.05985 20.2602 7.99807 20.2288 7.94394C20.0442 7.40879 19.8737 6.96921 19.7281 6.65194C19.9961 6.53708 20.1729 6.25909 20.1755 5.94861V2.76449C20.1755 2.34225 19.8576 2 19.4654 2H10.7408C10.5447 1.99962 10.3854 2.17043 10.3851 2.38158C10.3851 2.38946 10.3853 2.39735 10.3857 2.40518C10.5064 4.69866 10.3502 6.25441 9.89923 7.35146C9.89026 7.36235 9.88196 7.37386 9.87437 7.38586C9.87304 7.40492 9.87304 7.42413 9.87437 7.44319C9.70224 7.84255 9.46943 8.20812 9.1855 8.52495L9.15354 8.54789C9.15354 8.54789 9.15354 8.54789 9.15354 8.57465C8.73724 9.00205 8.25711 9.35094 7.73318 9.60671C6.82033 10.0427 5.88351 10.418 4.92796 10.7305L4.74687 10.7955C1.42677 11.9805 0.993564 14.1287 1.00067 15.2066C0.999778 15.2219 0.999778 15.2372 1.00067 15.2525V17.9817C1.0012 18.1146 1.06569 18.2376 1.17111 18.3066C1.9848 18.8396 2.86311 19.2486 3.78102 19.5222C3.9698 19.5793 4.1659 19.4609 4.21898 19.2577C4.22897 19.2194 4.23336 19.1797 4.23199 19.1399V19.052H4.75397V19.4343C4.75171 19.6236 4.87861 19.7862 5.05225 19.8165C5.36117 19.87 5.6701 19.9121 5.97193 19.9388C6.07082 19.9478 6.16869 19.9117 6.2418 19.8395C6.31486 19.7665 6.35609 19.6639 6.35543 19.5566V19.075H6.87741V19.6178C6.87741 19.8288 7.0364 20 7.2325 20C7.53077 20 7.82905 20 8.14863 19.9541C8.33359 19.9382 8.47589 19.7716 8.47531 19.5719V19.075H8.9973V19.4113C8.99477 19.6224 9.15167 19.7958 9.34777 19.7985C9.36832 19.7988 9.38887 19.7972 9.4092 19.7936C10.061 19.6861 10.7035 19.5212 11.3302 19.3005L11.3871 19.2737C13.8727 17.7447 15.4493 19.0023 15.5132 19.0559C15.5752 19.1076 15.6513 19.1358 15.7298 19.1361H16.1701C16.3662 19.1361 16.5252 18.965 16.5252 18.7539V18.1079H17.033V18.7462C17.033 18.9573 17.192 19.1285 17.3881 19.1285H18.5315C18.7276 19.1285 18.8866 18.9573 18.8866 18.7462V18.1079H19.4121V18.7462C19.4121 18.9573 19.5711 19.1285 19.7672 19.1285H20.6443C20.8404 19.1285 20.9993 18.9573 20.9993 18.7462V14.6256C21.0028 14.4411 20.8833 14.2803 20.7153 14.2434ZM12.289 2.77214H19.4476V5.93714H12.289V2.77214ZM7.8255 10.3941L7.82905 10.4171C8.12014 10.6715 8.38876 10.9543 8.63155 11.2618C8.56715 11.3771 8.53395 11.5095 8.53568 11.6441C8.53324 12.0473 8.83493 12.3763 9.20946 12.3789C9.58404 12.3815 9.88964 12.0568 9.89208 11.6536C9.89439 11.2737 9.62572 10.9555 9.27427 10.9216C9.04967 10.592 8.79379 10.2884 8.51082 10.0157C8.82814 9.8213 9.12668 9.59338 9.4021 9.33532C9.74649 9.68311 10.0669 10.0574 10.3608 10.4553C10.2373 10.836 10.4238 11.2523 10.7774 11.3854C11.131 11.5183 11.5178 11.3176 11.6414 10.9369C11.7649 10.5563 11.5784 10.1399 11.2248 10.0069C11.1515 9.97926 11.0742 9.96545 10.9965 9.96602H10.9112C10.5998 9.54393 10.2604 9.14663 9.89567 8.77724C10.0649 8.5529 10.2147 8.31238 10.3431 8.05861C10.8928 8.36665 11.4241 8.71135 11.9339 9.09068C11.9304 9.49811 12.2344 9.83143 12.6129 9.8352C12.9914 9.83897 13.301 9.51172 13.3045 9.1043C13.308 8.69687 13.004 8.36355 12.6255 8.35977C12.5174 8.35868 12.4106 8.38515 12.3138 8.43704C11.7773 8.046 11.2187 7.69113 10.6414 7.37439C11.0284 6.26587 11.1953 4.79422 11.1172 2.78743H11.5824V5.95243C11.5824 6.37467 11.9003 6.71693 12.2925 6.71693H18.9469C19.0392 6.91952 19.1955 7.27118 19.3659 7.72988H19.2203C17.0632 7.74665 15.3271 9.64269 15.3427 11.9648C15.3515 13.2844 15.9353 14.5229 16.9194 15.3098C14.0467 16.124 9.72523 17.0911 6.08911 16.8388C6.76023 13.9529 5.95773 12.1754 5.43574 11.3956C6.24859 11.1086 7.04634 10.7743 7.8255 10.3941ZM4.72201 11.6135C5.10551 12.099 6.10686 13.7312 5.37183 16.7318C4.09235 16.6235 2.84967 16.2193 1.7286 15.5468C1.71586 15.4595 1.70756 15.3714 1.70374 15.2831V15.2563C1.67534 14.4421 1.95941 12.68 4.72201 11.6135ZM20.1223 18.364V17.7256C20.1223 17.5145 19.9633 17.3434 19.7672 17.3434H18.535C18.3389 17.3434 18.1799 17.5145 18.1799 17.7256V18.364H17.7432V17.7256C17.7432 17.5145 17.5842 17.3434 17.3881 17.3434H16.163C15.9669 17.3434 15.8079 17.5145 15.8079 17.7256V18.3487C15.325 18.0238 13.5602 17.0796 11.0568 18.5857C10.6114 18.7439 10.1572 18.8716 9.69683 18.9679V18.7042C9.69683 18.4931 9.53783 18.3219 9.34173 18.3219H8.11667C7.92058 18.3219 7.76158 18.4931 7.76158 18.7042V19.2279H7.58049V18.6927C7.58049 18.4816 7.4215 18.3105 7.2254 18.3105H5.99323C5.79714 18.3105 5.63814 18.4816 5.63814 18.6927V19.1476L5.45705 19.1208V18.6927C5.45705 18.4816 5.29806 18.3105 5.10196 18.3105H3.86979C3.68919 18.3091 3.53637 18.4538 3.5147 18.6468C2.88446 18.4235 2.27757 18.1301 1.70374 17.7715V16.4031C3.25194 17.286 5.25465 17.6186 7.38519 17.6186C13.0453 17.6186 19.5222 15.2869 20.2856 15.0079L20.2892 18.364H20.1223ZM19.9483 14.3313C19.6465 14.4383 18.9043 14.7135 17.8781 15.0079C16.2894 14.1801 15.6248 12.1228 16.3937 10.4125C16.9197 9.24267 18.0132 8.49175 19.2203 8.47144C19.3603 8.46934 19.5003 8.47698 19.6394 8.49437L19.6429 8.50584C20.1649 10.1266 20.6336 12.4392 19.9483 14.3313Z" fill="currentColor"/><path d="M13.6564 3.23469C13.0857 3.23469 12.6231 3.73271 12.6231 4.34703C12.625 4.96049 13.0865 5.45727 13.6564 5.45937C14.227 5.45937 14.6897 4.96135 14.6897 4.34703C14.6897 3.73271 14.2271 3.23469 13.6564 3.23469ZM13.6564 4.69487C13.4779 4.69487 13.3332 4.53916 13.3332 4.34703C13.3332 4.1549 13.4779 3.99918 13.6564 3.99918C13.8348 3.99918 13.9795 4.1549 13.9795 4.34703C13.9795 4.53916 13.8348 4.69487 13.6564 4.69487Z" fill="currentColor"/></g></symbol><symbol id="cross" viewBox="0 0 22 22"><g fill="none"><path d="M2 2L11 11M20 20L11 11M11 11L20 2L2 20" stroke="currentColor" stroke-width="2"/></g></symbol><symbol id="crown" viewBox="0 0 22 22"><g fill="none"><path d="M17.6867 20H4.31331M21 7.11028L18.0746 16.8049H3.92539L1 7.11028L6.77168 10.6142L11 2L15.2283 10.6142L21 7.11028Z" stroke="currentColor"/></g></symbol><symbol id="empty-star" viewBox="0 0 15 14"><g fill="none"><g clip-path="url(#clip0_248_2546)"><path d="M7.74525 10.6055L7.5 10.4674L7.25475 10.6055L3.63071 12.6453L4.57642 8.85073L4.6535 8.54147L4.40569 8.34105L1.28779 5.81937L5.43318 5.48739L5.72674 5.46388L5.84852 5.19573L7.5 1.55927L9.15151 5.19574L9.27329 5.46388L9.56685 5.48739L13.7122 5.81937L10.5943 8.34105L10.3465 8.54147L10.4236 8.85073L11.3693 12.6453L7.74525 10.6055Z" stroke="currentColor"/></g></g></symbol><symbol id="full-star" viewBox="0 0 15 14"><g fill="none"><g clip-path="url(#clip0_248_2542)"><path d="M7.5 11.0412L12.135 13.6501L10.9087 8.72981L15 5.4209L9.60676 4.98898L7.5 0.350098L5.39326 4.98898L0 5.4209L4.09126 8.72981L2.865 13.6501L7.5 11.0412Z" fill="currentColor"/></g></g></symbol><symbol id="heart" viewBox="0 0 17 17"><g fill="none"><path d="M14.3232 4.70821C14.1007 4.19296 13.7799 3.72605 13.3786 3.33361C12.9771 2.93999 12.5036 2.62719 11.9841 2.41222C11.4453 2.18842 10.8675 2.07386 10.2841 2.07521C9.46562 2.07521 8.66709 2.29933 7.97314 2.72267C7.80713 2.82394 7.64941 2.93517 7.5 3.05636C7.35059 2.93517 7.19287 2.82394 7.02686 2.72267C6.33291 2.29933 5.53437 2.07521 4.71592 2.07521C4.12656 2.07521 3.55547 2.1881 3.01592 2.41222C2.49463 2.62804 2.0248 2.93849 1.62139 3.33361C1.21962 3.72561 0.898684 4.19263 0.676758 4.70821C0.445996 5.24445 0.328125 5.81388 0.328125 6.39991C0.328125 6.95275 0.441016 7.52882 0.665137 8.11486C0.852734 8.6046 1.12168 9.11261 1.46533 9.6256C2.00986 10.4374 2.75859 11.2841 3.68828 12.1424C5.22891 13.5651 6.75459 14.548 6.81934 14.5878L7.21279 14.8401C7.38711 14.9514 7.61123 14.9514 7.78555 14.8401L8.179 14.5878C8.24375 14.5463 9.76777 13.5651 11.3101 12.1424C12.2397 11.2841 12.9885 10.4374 13.533 9.6256C13.8767 9.11261 14.1473 8.6046 14.3332 8.11486C14.5573 7.52882 14.6702 6.95275 14.6702 6.39991C14.6719 5.81388 14.554 5.24445 14.3232 4.70821ZM7.5 13.527C7.5 13.527 1.58984 9.74015 1.58984 6.39991C1.58984 4.70821 2.98936 3.33693 4.71592 3.33693C5.92949 3.33693 6.98203 4.01427 7.5 5.00372C8.01797 4.01427 9.07051 3.33693 10.2841 3.33693C12.0106 3.33693 13.4102 4.70821 13.4102 6.39991C13.4102 9.74015 7.5 13.527 7.5 13.527Z" fill="currentColor"/></g></symbol><symbol id="leaf" viewBox="0 0 22 22"><g fill="none"><path d="M10.6903 16.2442C10.0125 13.3813 8.01953 10.9718 5.27543 9.69773C3.92399 9.07026 2.46282 8.75181 1 8.74238C1.08555 10.771 1.83429 12.7457 3.17529 14.367C5.06036 16.646 7.9121 17.9803 10.933 17.9998C10.9083 17.4135 10.828 16.8259 10.6903 16.2442ZM10.6903 16.2442C10.1339 13.894 8.69109 11.8494 6.67408 10.4875C6.70814 10.2845 6.74903 10.0818 6.79684 9.87988C7.37026 7.4577 8.88519 5.36004 11 4C13.1147 5.36004 14.6297 7.4577 15.2031 9.87988C15.2509 10.0818 15.2918 10.2845 15.3258 10.4875C13.3088 11.8493 11.8661 13.894 11.3097 16.2442M10.6903 16.2442C10.8279 16.8257 10.9082 17.4131 10.933 17.9992C10.9748 17.9997 11.0166 18 11.0585 18C11.9054 18 12.7394 17.8966 13.5431 17.698C13.5477 17.692 13.5522 17.6859 13.5567 17.6799C12.752 17.8849 11.9162 17.9943 11.067 17.9998M11.3097 16.2442C11.9875 13.3813 13.9805 10.9718 16.7246 9.69773C18.076 9.07026 19.5372 8.75181 21 8.74238C20.9144 10.771 20.1657 12.7457 18.8247 14.367C16.9396 16.646 14.0879 17.9803 11.067 17.9998M11.3097 16.2442C11.172 16.8259 11.0917 17.4135 11.067 17.9998" stroke="currentColor" stroke-linecap="round" stroke-linejoin="round"/></g></symbol><symbol id="level" viewBox="0 0 12 12"><g fill="none"><g clip-path="url(#clip0_1101_155)"><path d="M10.909 11.4545H8.94536V0.54541H10.909V11.4545Z" stroke="currentColor" stroke-miterlimit="16" stroke-linecap="round"/><path d="M6.98173 11.4545V3.52062H5.01809L5.0181 11.4545H6.98173Z" stroke="currentColor" stroke-miterlimit="16" stroke-linecap="round"/><path d="M3.05446 11.4545V6.49582H1.09082V11.4545H3.05446Z" stroke="currentColor" stroke-miterlimit="16" stroke-linecap="round"/></g></g></symbol><symbol id="mail" viewBox="0 0 22 22"><g fill="none"><path d="M21 5.55556V16.4444C21 17.3036 20.3604 18 19.5714 18H2.42857C1.63959 18 1 17.3036 1 16.4444V5.55556M21 5.55556C21 4.69645 20.3604 4 19.5714 4H2.42857C1.63959 4 1 4.69645 1 5.55556M21 5.55556L12.8594 13.1534C11.7895 14.152 10.2106 14.152 9.14062 13.1534L1 5.55556" stroke="currentColor" stroke-linecap="round" stroke-linejoin="round"/></g></symbol><symbol id="map" viewBox="0 0 25 25"><g fill="none"><g clip-path="url(#clip0_248_2190)"><path d="M24.1704 22.2803V6.70123C24.1823 6.44571 23.9848 6.22897 23.7293 6.2171C23.6748 6.21456 23.6204 6.22168 23.5684 6.23812V6.26127L21.4844 6.91426C21.7026 6.33016 21.8321 5.71665 21.8688 5.09423C21.8688 2.28077 19.588 0 16.7745 0C13.9611 0 11.6803 2.28077 11.6803 5.09423C11.7128 5.68754 11.833 6.27279 12.0369 6.8309L8.59135 5.59902C8.55135 5.5941 8.51094 5.5941 8.47094 5.59902H8.43389C8.37837 5.60001 8.32344 5.61101 8.2718 5.63144L1.12598 8.41011C0.961171 8.47281 0.846262 8.62361 0.82959 8.79913V16.246V24.3967C0.830342 24.6525 1.03828 24.8592 1.29409 24.8585C1.35065 24.8583 1.40669 24.8478 1.45942 24.8274L8.44315 22.1229L16.4087 24.9756C16.5048 25.0081 16.6089 25.0081 16.7051 24.9756L23.8463 22.7434C24.0469 22.6806 24.18 22.4904 24.1704 22.2803ZM16.7745 0.926224C19.0765 0.926224 20.9425 2.79228 20.9425 5.09423C20.9425 6.905 18.2241 11.9066 16.7745 14.3565C15.325 11.8881 12.6065 6.88184 12.6065 5.09423C12.6065 2.79228 14.4726 0.926224 16.7745 0.926224ZM23.2581 21.9608L17.0246 23.9105V20.3769C17.0246 20.1212 16.8173 19.9138 16.5615 19.9138C16.3057 19.9138 16.0984 20.1212 16.0984 20.3769V23.8781L8.90163 21.3032V18.3392C8.90163 18.0835 8.69427 17.8761 8.43852 17.8761C8.18277 17.8761 7.97541 18.0835 7.97541 18.3392V21.3032L1.75581 23.7252V16.5655L4.04359 15.6393C4.2884 15.5652 4.42675 15.3067 4.35266 15.0618C4.27856 14.817 4.02003 14.6787 3.77521 14.7528C3.74963 14.7605 3.72473 14.7705 3.70083 14.7825L1.75576 15.5652V9.11868L7.97535 6.71049V8.09983C7.97535 8.35558 8.18271 8.56294 8.43846 8.56294C8.69421 8.56294 8.90157 8.35558 8.90157 8.09983V6.69197L12.4536 7.96553C13.5928 10.5687 14.9032 13.0936 16.3762 15.5235C16.5088 15.7422 16.7936 15.8119 17.0123 15.6793C17.076 15.6407 17.1295 15.5872 17.1681 15.5235C18.6339 13.1079 19.9396 10.5985 21.0768 8.01184L23.2442 7.33106L23.258 14.9215L20.9101 15.4911C20.6543 15.5218 20.4718 15.754 20.5025 16.0098C20.5332 16.2655 20.7655 16.448 21.0212 16.4173C21.0581 16.4218 21.0954 16.4218 21.1324 16.4173L23.258 15.8986V21.9608H23.2581Z" fill="currentColor"/><path d="M16.7556 2.40332C15.2696 2.40332 14.0649 3.60799 14.0649 5.094C14.0649 6.58001 15.2696 7.78468 16.7556 7.78468C18.2406 7.78213 19.4438 6.57897 19.4463 5.094C19.4463 3.60799 18.2416 2.40332 16.7556 2.40332ZM16.7556 6.85846C15.7895 6.84584 15.0121 6.06028 15.0097 5.094H14.9912C14.9912 4.1195 15.7811 3.32954 16.7556 3.32954C17.7301 3.32954 18.5201 4.1195 18.5201 5.094C18.5201 6.0685 17.7301 6.85846 16.7556 6.85846Z" fill="currentColor"/><path d="M10.6981 13.9672V13.9811L8.45661 13.0132C8.34251 12.9656 8.21411 12.9656 8.10001 13.0132L6.20589 13.7774C5.96802 13.8733 5.85294 14.1439 5.94886 14.3817C6.04478 14.6196 6.31536 14.7347 6.55322 14.6387L8.26673 13.9487L10.3276 14.8194C10.3861 14.8443 10.4492 14.8569 10.5128 14.8564C10.7686 14.8585 10.9776 14.6529 10.9797 14.3971C10.9812 14.2101 10.8701 14.0405 10.6981 13.9672Z" fill="currentColor"/><path d="M18.27 16.6161C18.201 16.393 17.9766 16.2562 17.7467 16.2969L17.7513 16.2599L16.6028 16.5377L14.6578 15.6949C14.4224 15.5926 14.1487 15.7004 14.0465 15.9357C13.9442 16.171 14.052 16.4447 14.2873 16.547L16.3713 17.4732C16.4298 17.4982 16.4929 17.5108 16.5565 17.5103H16.6677L17.9644 17.1954C18.2087 17.1198 18.3455 16.8604 18.27 16.6161Z" fill="currentColor"/></g></g></symbol><symbol id="menu" viewBox="0 0 22 22"><g fill="none"><path d="M0 3H22V4.83609H0V3Z" fill="currentColor"/><path d="M0 17.1639H22V19H0V17.1639Z" fill="currentColor"/><path d="M0 10.082H14.08V11.918H0V10.082Z" fill="currentColor"/></g></symbol><symbol id="moon" viewBox="0 0 12 12"><g fill="none"><g clip-path="url(#clip0_1101_151)"><path d="M11.1966 6.75379C11.0851 6.72581 10.9736 6.75379 10.876 6.82374C10.5135 7.13153 10.0953 7.38335 9.6352 7.55123C9.20301 7.71912 8.72901 7.80306 8.22712 7.80306C7.09786 7.80306 6.0662 7.34138 5.32731 6.5999C4.58841 5.85842 4.12835 4.82314 4.12835 3.68994C4.12835 3.21427 4.212 2.75259 4.35141 2.33289C4.50477 1.8852 4.72783 1.47949 5.0206 1.12973C5.14607 0.975839 5.11819 0.751995 4.96483 0.626083C4.86724 0.556132 4.75571 0.528152 4.64418 0.556132C3.45916 0.877907 2.4275 1.59141 1.6886 2.54274C0.977593 3.48008 0.54541 4.64127 0.54541 5.91438C0.54541 7.43931 1.15883 8.82434 2.16261 9.83164C3.16639 10.8389 4.54659 11.4545 6.0662 11.4545C7.34881 11.4545 8.53383 11.0068 9.48184 10.2653C10.4438 9.50986 11.1409 8.43262 11.4336 7.20148C11.5033 6.99163 11.3918 6.79576 11.1966 6.75379ZM9.0636 9.67774C8.255 10.3213 7.22334 10.713 6.09408 10.713C4.76965 10.713 3.57069 10.1674 2.70633 9.30001C1.84196 8.43262 1.29825 7.22946 1.29825 5.90039C1.29825 4.79516 1.66072 3.78787 2.28808 2.97644C2.72027 2.41683 3.26398 1.95515 3.89134 1.63338C3.82164 1.78727 3.75193 1.94116 3.69617 2.10904C3.51493 2.61269 3.43128 3.14432 3.43128 3.70393C3.43128 5.033 3.97499 6.25015 4.83936 7.11754C5.70373 7.98493 6.91663 8.53055 8.24106 8.53055C8.8266 8.53055 9.38425 8.43262 9.90008 8.23675C10.0813 8.1668 10.2626 8.09685 10.4299 8.01291C10.0953 8.65646 9.6352 9.23006 9.0636 9.67774Z" fill="currentColor"/></g></g></symbol><symbol id="mountain" viewBox="0 0 25 25"><g fill="none"><g clip-path="url(#clip0_248_2161)"><path d="M23.4153 24.1879L19.3747 14.7901L15.5583 5.9074C15.4551 5.665 15.1749 5.55224 14.9325 5.65546C14.8192 5.70376 14.7289 5.79404 14.6806 5.9074L11.2744 13.8121L9.93871 16.9177L7.00963 10.1579C6.90634 9.91551 6.62614 9.80274 6.3838 9.90596C6.27044 9.95427 6.18016 10.0445 6.13186 10.1579L3.37928 16.517L0.0399368 24.1831C-0.0654315 24.4246 0.0448861 24.7058 0.286333 24.8112C0.347037 24.8377 0.412572 24.8513 0.478822 24.851H22.9765C23.2399 24.8508 23.4533 24.6371 23.4531 24.3736C23.4531 24.3098 23.4402 24.2467 23.4153 24.1879ZM15.1147 7.29561L18.2107 14.4943H17.1231L15.1576 12.3237C14.9804 12.1287 14.6787 12.1143 14.4837 12.2916C14.4531 12.3194 14.4263 12.351 14.4039 12.3857L13.6692 13.5211H12.4384L15.1147 7.29561ZM6.57074 11.5318L9.018 17.1896H7.68226C7.52007 17.1899 7.36914 17.2726 7.28154 17.4091L6.80449 18.1676L5.57371 16.4311C5.48474 16.3028 5.33864 16.2262 5.18253 16.226H4.54805L6.57074 11.5318ZM1.22779 23.8969L4.13302 17.1801H4.93446L6.42285 19.3029C6.51182 19.4312 6.65792 19.5078 6.81403 19.5081C6.97283 19.5046 7.11947 19.4223 7.20522 19.2886L7.93987 18.1532H9.42826L11.9137 23.8778L1.22779 23.8969ZM12.9584 23.8969L10.4587 18.1246L12.0282 14.4752H13.9364C14.0986 14.4749 14.2495 14.3923 14.3371 14.2558L14.8666 13.44L16.5554 15.3053C16.6455 15.4052 16.7738 15.4624 16.9084 15.4627H18.6162L22.2466 23.9112L12.9584 23.8969Z" fill="currentColor"/><path d="M7.61096 2.08189C7.16093 0.922602 5.85626 0.347698 4.69703 0.797794C3.83387 1.13286 3.26385 1.96221 3.26028 2.8881C3.25557 2.97075 3.25557 3.05352 3.26028 3.13617C2.13241 3.65997 1.64278 4.99893 2.16658 6.12679C2.52932 6.90778 3.30572 7.41351 4.16667 7.42961L4.19052 7.44869H7.52987C9.01188 7.47112 10.2314 6.28786 10.2538 4.80584C10.2762 3.32383 9.09298 2.10431 7.61096 2.08189ZM7.55849 6.50891H4.21914C3.50512 6.58267 2.86653 6.0637 2.79277 5.34968C2.719 4.63565 3.23797 3.99706 3.952 3.9233C4.21026 3.87124 4.37747 3.61972 4.32541 3.3614C4.32141 3.34166 4.31622 3.32216 4.30978 3.30314C4.26321 3.16968 4.23906 3.02943 4.23823 2.8881C4.23417 2.17146 4.81176 1.58725 5.52841 1.58314C6.16234 1.5795 6.70606 2.03448 6.81429 2.65912C6.85812 2.90993 7.09122 3.08208 7.34382 3.0503C7.41531 3.04559 7.48699 3.04559 7.55849 3.0503C8.51354 3.0503 9.28779 3.82455 9.28779 4.7796C9.28779 5.73466 8.51354 6.50891 7.55849 6.50891Z" fill="currentColor"/><path d="M23.6966 2.63997C23.7013 2.55733 23.7013 2.47456 23.6966 2.39191C23.6917 1.14836 22.6797 0.144172 21.4362 0.148943C20.517 0.152521 19.6936 0.714604 19.3539 1.56727C17.8794 1.59816 16.7046 2.81392 16.7269 4.29057C16.7493 5.77258 17.9688 6.95584 19.4508 6.93342H22.7902C24.0335 6.91016 25.0226 5.88343 24.9994 4.64006C24.9833 3.77911 24.4776 3.00271 23.6966 2.63997ZM24.0559 4.94758C23.9296 5.54008 23.4102 5.96632 22.8045 5.97455H19.4651C18.5101 5.97455 17.7358 5.2003 17.7358 4.24525C17.7358 3.29019 18.5101 2.51594 19.4651 2.51594C19.5366 2.51123 19.6083 2.51123 19.6798 2.51594C19.9212 2.54099 20.1429 2.38088 20.195 2.14384C20.3146 1.43727 20.9843 0.961417 21.6909 1.08098C22.3975 1.20054 22.8734 1.87026 22.7538 2.57688C22.7416 2.64862 22.7235 2.71922 22.6995 2.78792C22.6153 3.03754 22.7494 3.3082 22.9991 3.39246C23.0181 3.3989 23.0376 3.40415 23.0573 3.40808C23.7582 3.5574 24.2053 4.24668 24.0559 4.94758Z" fill="currentColor"/></g></g></symbol><symbol id="next" viewBox="0 0 22 22"><g fill="none"><path d="M3.4375 2.75C3.55849 2.75003 3.67732 2.78205 3.78194 2.84281L16.8444 10.4053C16.9486 10.4657 17.0351 10.5525 17.0952 10.6569C17.1553 10.7612 17.187 10.8796 17.187 11C17.187 11.1204 17.1553 11.2388 17.0952 11.3431C17.0351 11.4475 16.9486 11.5343 16.8444 11.5947L3.78194 19.1572C3.67746 19.2177 3.5589 19.2496 3.43817 19.2497C3.31745 19.2498 3.19882 19.2181 3.09423 19.1579C2.98963 19.0976 2.90275 19.0108 2.84232 18.9063C2.78189 18.8018 2.75005 18.6832 2.75 18.5625L2.75 3.4375C2.75 3.25516 2.82243 3.08029 2.95136 2.95136C3.0803 2.82243 3.25516 2.75 3.4375 2.75ZM20.625 19.25L19.25 19.25L19.25 2.75L20.625 2.75L20.625 19.25Z" fill="currentColor"/></g></symbol><symbol id="path" viewBox="0 0 22 22"><g fill="none"><g clip-path="url(#clip0_131_2519)"><path d="M18.1429 8.76743H12.7857C11.1091 8.76743 9.75 10.1366 9.75 11.8256C9.75 13.5145 11.1091 14.8837 12.7857 14.8837H15.1071C16.7837 14.8837 18.1429 16.2529 18.1429 17.9419C18.1429 19.6308 16.7837 21 15.1071 21H3.85714M6.71428 15.9302C6.71428 14.3406 5.4351 13.0519 3.85714 13.0519C2.27919 13.0519 1 14.3406 1 15.9302V16.0384C1 16.6695 1.1985 17.2845 1.56701 17.7949L3.8515 20.9593C3.85429 20.9632 3.86 20.9632 3.86279 20.9593L6.14727 17.7949C6.51578 17.2845 6.71428 16.6695 6.71428 16.0384V15.9302ZM4.40947 14.7454L4.42662 14.7535C4.77242 14.9183 5.02453 15.2332 5.11112 15.6086C5.19868 15.9881 5.10458 16.3904 4.86077 16.6929C4.61964 16.9921 4.25485 17.1691 3.87232 17.1691H3.84197C3.45944 17.1691 3.09464 16.9921 2.85352 16.6929C2.60971 16.3904 2.51561 15.9881 2.60316 15.6086C2.68975 15.2332 2.94186 14.9183 3.28767 14.7535L3.30482 14.7454C3.65446 14.5788 4.05982 14.5788 4.40947 14.7454ZM21 3.89849C21 2.30887 19.7208 1 18.1429 1C16.5649 1 15.2857 2.30887 15.2857 3.89849C15.2857 4.52339 15.4857 5.1384 15.8561 5.63972L18.1372 8.72766C18.14 8.73147 18.1457 8.73147 18.1485 8.72766L20.4297 5.63972C20.8 5.1384 21 4.52339 21 3.89849ZM18.6875 2.65136L18.7262 2.66941C19.0631 2.82627 19.3099 3.13018 19.3957 3.4939C19.4838 3.86694 19.3925 4.25998 19.1492 4.55491L19.137 4.56971C18.8999 4.85725 18.548 5.02359 18.1769 5.02359H18.1088C17.7377 5.02359 17.3858 4.85725 17.1487 4.56971L17.1365 4.55491C16.8932 4.25998 16.8019 3.86694 16.89 3.4939C16.9758 3.13018 17.2226 2.82627 17.5595 2.66941L17.5983 2.65136C17.9438 2.49048 18.342 2.49048 18.6875 2.65136Z" stroke="currentColor" stroke-linecap="round"/></g></g></symbol><symbol id="phone" viewBox="0 0 22 22"><g fill="none"><g clip-path="url(#clip0_131_2514)"><path d="M19.3236 20.0443C19.0034 20.6753 18.3438 21.0672 17.6426 20.9904C17.3412 20.9575 17.0402 20.9171 16.7396 20.8693C12.8229 20.2465 9.20304 18.3949 6.39895 15.5797C3.59486 12.7646 1.75046 9.1305 1.1301 5.19831C1.08254 4.89683 1.04236 4.59477 1.00952 4.29242C0.933062 3.58844 1.32346 2.92622 1.95195 2.60473L4.70244 1.19777C5.76693 0.653244 7.05498 1.28842 7.42933 2.42743C7.65638 3.11826 7.92452 3.79805 8.23342 4.4631C8.38821 4.79636 8.5524 5.12412 8.72567 5.44606C9.13588 6.20824 8.85917 7.18583 8.0736 7.54431C6.93267 8.06496 6.66094 9.56938 7.54713 10.4591L11.4995 14.427C12.3857 15.3167 13.8842 15.0439 14.4028 13.8985C14.7796 13.0663 15.8009 12.765 16.6118 13.1807C16.8084 13.2814 17.0071 13.3788 17.2078 13.4728C17.9681 13.8287 18.7478 14.1308 19.5413 14.3784C20.6964 14.7389 21.3521 16.0475 20.8029 17.1296L19.3236 20.0443Z" stroke="currentColor" stroke-linecap="round" stroke-linejoin="round"/></g></g></symbol><symbol id="pin" viewBox="0 0 9 12"><g fill="none"><path d="M4.49981 0C2.01874 0 0 1.98191 0 4.41796C0 5.05338 0.132472 5.66006 0.39354 6.2213C1.51862 8.63833 3.67571 11.1902 4.31017 11.9146C4.35771 11.9688 4.42701 12 4.49994 12C4.57287 12 4.64217 11.9688 4.6897 11.9146C5.32392 11.1903 7.48101 8.63857 8.60646 6.2213C8.86765 5.66006 9 5.05338 9 4.41796C8.99975 1.98191 6.98101 0 4.49981 0ZM4.49981 6.71267C3.21099 6.71267 2.16234 5.68315 2.16234 4.41784C2.16234 3.15241 3.21099 2.12289 4.49981 2.12289C5.78864 2.12289 6.83728 3.15241 6.83728 4.41784C6.83741 5.68315 5.78876 6.71267 4.49981 6.71267Z" fill="currentColor"/></g></symbol><symbol id="pine-tree" viewBox="0 0 23 23"><g fill="none"><g clip-path="url(#clip0_248_2173)"><path d="M22.6246 16.6365L18.1102 11.472H20.2913C20.546 11.4714 20.7519 11.2644 20.7514 11.0098C20.7511 10.9084 20.7175 10.8099 20.6556 10.7296L17.0312 5.96623H18.8757C19.1304 5.96589 19.3365 5.75919 19.3363 5.50454C19.3361 5.39271 19.2953 5.28475 19.2215 5.20077L14.7856 0.156126C14.6172 -0.0348923 14.3257 -0.0531642 14.1347 0.115317C14.1202 0.128056 14.1066 0.141716 14.0939 0.156126L9.65332 5.19616C9.4827 5.38522 9.49763 5.67682 9.68663 5.84744C9.77229 5.92473 9.88376 5.9671 9.99916 5.96623H11.8667L10.7508 7.42337L7.76273 4.02492C7.5943 3.8339 7.30288 3.81563 7.11186 3.98411C7.09739 3.99685 7.08379 4.01051 7.07105 4.02492L3.27604 8.33639C3.10796 8.52769 3.12681 8.81906 3.31811 8.98714C3.40209 9.06092 3.51005 9.10167 3.62188 9.10184H5.08362L2.04946 13.0721C1.89919 13.2777 1.94398 13.5662 2.14958 13.7165C2.22636 13.7726 2.31864 13.8036 2.41374 13.8053H4.11988L0.370984 18.1167C0.205442 18.3102 0.228094 18.6013 0.421649 18.7669C0.503959 18.8373 0.608518 18.8765 0.716823 18.8776H5.8168V22.1054C5.8168 22.5994 6.21734 23 6.71138 23H8.11779C8.61182 23.0025 9.01444 22.6041 9.01697 22.11C9.01697 22.1085 9.01697 22.107 9.01697 22.1054V18.8776H12.8443V22.1054C12.8443 22.5994 13.2448 23 13.7388 23H15.1453C15.6393 23 16.0398 22.5994 16.0398 22.1054V17.402H22.2788C22.5334 17.4017 22.7396 17.195 22.7393 16.9403C22.7391 16.8285 22.6984 16.7205 22.6246 16.6365ZM8.09473 22.0777L6.73904 22.1054L6.71138 18.8776H8.09473V22.0777ZM12.8443 17.9553H1.73129L5.50324 13.6531C5.67397 13.4642 5.65916 13.1726 5.47021 13.0018C5.38214 12.9223 5.2668 12.8797 5.14818 12.883H3.34981L6.38398 8.91279C6.53932 8.71099 6.50168 8.42146 6.29988 8.26612C6.21953 8.20428 6.12109 8.17061 6.0197 8.17038H4.63634L7.40306 5.02094L10.1698 8.16116L8.22385 10.7342C8.06851 10.936 8.10615 11.2255 8.30795 11.3809C8.3883 11.4427 8.48674 11.4764 8.58813 11.4766H10.7738L6.25948 16.6411C6.0914 16.8325 6.11025 17.1238 6.30156 17.2919C6.38554 17.3657 6.4935 17.4064 6.60532 17.4066H12.8443V17.9553ZM15.1176 22.0685L13.7665 22.1054L13.7388 17.402H15.1222L15.1176 22.0685ZM15.1453 16.4798H7.61978L12.1341 11.3152C12.3022 11.1239 12.2834 10.8325 12.0921 10.6645C12.0081 10.5907 11.9001 10.5499 11.7883 10.5498H9.52421L13.167 5.78178C13.3199 5.57808 13.2786 5.28902 13.0749 5.13622C12.9963 5.07731 12.901 5.04497 12.8028 5.04399H11.0367L14.4582 1.16137L17.8612 5.04399H16.0813C15.8267 5.04463 15.6207 5.25155 15.6213 5.50621C15.6215 5.6076 15.6552 5.70605 15.717 5.7864L19.3368 10.5498H17.0912C16.8365 10.5501 16.6303 10.7568 16.6306 11.0115C16.6307 11.1233 16.6716 11.2312 16.7453 11.3152L21.2597 16.4798H15.1453Z" fill="currentColor"/></g></g></symbol><symbol id="play-audio" viewBox="0 0 47 47"><g fill="none"><path d="M47 23.5C47 29.7326 44.5241 35.7099 40.117 40.117C35.7099 44.5241 29.7326 47 23.5 47C17.2674 47 11.2901 44.5241 6.88299 40.117C2.47589 35.7099 0 29.7326 0 23.5C0 17.2674 2.47589 11.2901 6.88299 6.88299C11.2901 2.47589 17.2674 0 23.5 0C29.7326 0 35.7099 2.47589 40.117 6.88299C44.5241 11.2901 47 17.2674 47 23.5ZM19.9456 14.9607C19.726 14.8043 19.4676 14.7114 19.1987 14.6922C18.9298 14.6729 18.6607 14.728 18.4211 14.8515C18.1814 14.975 17.9804 15.162 17.84 15.3922C17.6995 15.6223 17.6252 15.8867 17.625 16.1562V30.8438C17.6252 31.1133 17.6995 31.3777 17.84 31.6078C17.9804 31.838 18.1814 32.025 18.4211 32.1485C18.6607 32.272 18.9298 32.3271 19.1987 32.3078C19.4676 32.2886 19.726 32.1957 19.9456 32.0393L30.2269 24.6956C30.4173 24.5597 30.5725 24.3803 30.6795 24.1724C30.7866 23.9644 30.8425 23.7339 30.8425 23.5C30.8425 23.2661 30.7866 23.0356 30.6795 22.8276C30.5725 22.6197 30.4173 22.4403 30.2269 22.3044L19.9456 14.9607Z" fill="currentColor"/></g></symbol><symbol id="play-video" viewBox="0 0 12 22"><g fill="none"><path d="M12 11L0 0V22L12 11Z" fill="currentColor"/></g></symbol><symbol id="prev" viewBox="0 0 22 22"><g fill="none"><path d="M18.5625 19.25C18.4415 19.25 18.3227 19.218 18.2181 19.1572L5.15556 11.5947C5.05138 11.5343 4.9649 11.4475 4.90479 11.3431C4.84467 11.2388 4.81303 11.1204 4.81303 11C4.81303 10.8796 4.84467 10.7612 4.90479 10.6569C4.9649 10.5525 5.05138 10.4657 5.15556 10.4053L18.2181 2.84281C18.3225 2.78233 18.4411 2.75043 18.5618 2.75031C18.6826 2.75019 18.8012 2.78186 18.9058 2.84214C19.0104 2.90242 19.0973 2.98917 19.1577 3.09369C19.2181 3.1982 19.2499 3.31678 19.25 3.4375V18.5625C19.25 18.7448 19.1776 18.9197 19.0486 19.0486C18.9197 19.1776 18.7448 19.25 18.5625 19.25ZM1.375 2.75H2.75V19.25H1.375V2.75Z" fill="currentColor"/></g></symbol><symbol id="repeat" viewBox="0 0 25 25"><g fill="none"><path d="M20.1449 8.18493C20.9716 9.05095 21.5321 10.1362 21.7599 11.3116C21.9876 12.487 21.873 13.7031 21.4296 14.8152C20.9862 15.9273 20.2327 16.8887 19.2587 17.5849C18.2847 18.2812 17.1313 18.6831 15.9355 18.7427L15.6246 18.7506L10.4793 18.749L12.273 20.5443C12.4024 20.6736 12.4824 20.8442 12.4989 21.0263C12.5155 21.2085 12.4676 21.3907 12.3636 21.5412L12.273 21.649C12.1437 21.7784 11.9732 21.8584 11.791 21.8749C11.6088 21.8915 11.4266 21.8436 11.2761 21.7396L11.1683 21.649L8.04019 18.5209C7.91101 18.3914 7.83134 18.2207 7.81507 18.0386C7.79879 17.8564 7.84694 17.6743 7.95113 17.524L8.04019 17.4162L11.1683 14.2881C11.3061 14.1496 11.4908 14.0679 11.6859 14.0588C11.881 14.0498 12.0724 14.1142 12.2223 14.2393C12.3723 14.3644 12.47 14.5411 12.4962 14.7346C12.5223 14.9282 12.475 15.1245 12.3636 15.2849L12.273 15.3943L10.4793 17.1865H15.6246C16.82 17.1866 17.9702 16.73 18.8401 15.9101C19.71 15.0901 20.2337 13.9689 20.3043 12.7756L20.3121 12.5006C20.3139 11.2665 19.8275 10.0819 18.9589 9.20525C18.8164 9.06095 18.7355 8.86686 18.7334 8.66401C18.7314 8.46117 18.8083 8.26548 18.9479 8.11833C19.0876 7.97118 19.279 7.88412 19.4816 7.87555C19.6843 7.86699 19.8824 7.93759 20.0339 8.07243L20.1464 8.18493H20.1449ZM13.7246 3.26149L13.8339 3.35056L16.9605 6.47868L17.0511 6.58806C17.1412 6.71852 17.1894 6.87329 17.1894 7.03181C17.1894 7.19033 17.1412 7.34509 17.0511 7.47556L16.9605 7.58493L13.8339 10.7115L13.7246 10.8021C13.5941 10.8922 13.4393 10.9404 13.2808 10.9404C13.1223 10.9404 12.9675 10.8922 12.8371 10.8021L12.7277 10.7115L12.6386 10.6021C12.5486 10.4717 12.5004 10.3169 12.5004 10.1584C12.5004 9.99985 12.5486 9.84509 12.6386 9.71462L12.7277 9.60525L14.5214 7.81306H9.37456C8.17892 7.81299 7.02845 8.26982 6.15853 9.09006C5.28861 9.91031 4.76502 11.032 4.69488 12.2256L4.68706 12.5006C4.68706 13.7818 5.20113 14.9412 6.03238 15.7881C6.16401 15.9384 6.23305 16.1334 6.22531 16.333C6.21758 16.5327 6.13365 16.7218 5.99078 16.8614C5.84792 17.0011 5.65697 17.0807 5.4572 17.0839C5.25744 17.0871 5.06403 17.0137 4.91675 16.8787C4.07305 16.0192 3.49566 14.9342 3.25403 13.7543C3.0124 12.5744 3.11682 11.3499 3.55474 10.2279C3.99266 9.10596 4.74542 8.13444 5.72246 7.43021C6.6995 6.72598 7.85921 6.31905 9.06206 6.25837L9.37456 6.25056L14.5214 6.249L12.7277 4.45681L12.6386 4.34743C12.5357 4.19704 12.4886 4.01541 12.5055 3.83397C12.5223 3.65252 12.6021 3.48268 12.731 3.35382C12.8598 3.22497 13.0297 3.14521 13.2111 3.12835C13.3925 3.11149 13.5742 3.15859 13.7246 3.26149Z" fill="currentColor"/></g></symbol><symbol id="right" viewBox="0 0 9 14"><g fill="none"><path d="M1 13L7 7L0.999999 1" stroke="currentColor" stroke-width="2"/></g></symbol><symbol id="share" viewBox="0 0 17 17"><g fill="none"><path d="M8.50033 2.125V10.625M8.50033 2.125L5.66699 4.95833M8.50033 2.125L11.3337 4.95833M1.41699 12.0417L1.85687 13.8019C1.93348 14.1084 2.11033 14.3804 2.35931 14.5749C2.60829 14.7693 2.91512 14.875 3.23103 14.875H13.7696C14.0855 14.875 14.3924 14.7693 14.6413 14.5749C14.8903 14.3804 15.0672 14.1084 15.1438 13.8019L15.5837 12.0417" stroke="currentColor" stroke-width="1.16667" stroke-linecap="round" stroke-linejoin="round"/></g></symbol><symbol id="shield" viewBox="0 0 22 22"><g fill="none"><path d="M8.75001 10.912L11 13.1562L14.9375 9.22882M11 1C8.67869 2.18698 6.09257 2.81813 3.44902 2.81813C3.09212 2.81813 2.73627 2.80662 2.38197 2.7838C1.92463 4.87029 1.87403 7.04136 2.25148 9.17646C2.92717 12.9986 4.93142 16.4612 7.91222 18.9559C8.86795 19.7558 9.90448 20.4398 11 21C12.0955 20.4398 13.132 19.7558 14.0878 18.9559C17.0686 16.4612 19.0728 12.9986 19.7485 9.17647C20.126 7.04136 20.0754 4.87029 19.618 2.7838C19.2637 2.80662 18.9078 2.81813 18.5509 2.81813C15.9074 2.81813 13.3212 2.18698 11 1Z" stroke="currentColor"/></g></symbol><symbol id="shuffle" viewBox="0 0 25 25"><g fill="none"><path d="M23.2129 17.4121C23.3596 17.5602 23.4419 17.7603 23.4419 17.9688C23.4419 18.1772 23.3596 18.3773 23.2129 18.5254L20.8691 20.8691C20.7198 21.0135 20.5202 21.0942 20.3125 21.0942C20.1048 21.0942 19.9052 21.0135 19.7559 20.8691C19.6092 20.721 19.5269 20.521 19.5269 20.3125C19.5269 20.104 19.6092 19.904 19.7559 19.7559L20.7715 18.75H19.6191C18.4996 18.748 17.3967 18.4795 16.4016 17.9667C15.4064 17.4538 14.5477 16.7114 13.8965 15.8008L9.82422 10.1074C9.31888 9.3997 8.65233 8.82244 7.87968 8.42338C7.10703 8.02432 6.25048 7.81492 5.38086 7.8125H3.125C2.9178 7.8125 2.71909 7.73019 2.57257 7.58368C2.42606 7.43717 2.34375 7.23845 2.34375 7.03125C2.34375 6.82405 2.42606 6.62534 2.57257 6.47882C2.71909 6.33231 2.9178 6.25 3.125 6.25H5.38086C6.50037 6.25197 7.60331 6.52049 8.59844 7.03333C9.59357 7.54618 10.4523 8.28862 11.1035 9.19922L15.1758 14.8926C15.6811 15.6003 16.3477 16.1776 17.1203 16.5766C17.893 16.9757 18.7495 17.1851 19.6191 17.1875H20.7715L19.7559 16.1816C19.6313 16.0298 19.5676 15.8371 19.5772 15.641C19.5869 15.4449 19.6691 15.2593 19.808 15.1205C19.9468 14.9816 20.1324 14.8994 20.3285 14.8897C20.5246 14.8801 20.7173 14.9438 20.8691 15.0684L23.2129 17.4121ZM13.9648 10.4492C14.0487 10.5093 14.1436 10.5521 14.2441 10.5753C14.3446 10.5985 14.4487 10.6015 14.5504 10.5843C14.6521 10.567 14.7493 10.5298 14.8365 10.4748C14.9238 10.4198 14.9992 10.348 15.0586 10.2637L15.1758 10.1074C15.6811 9.3997 16.3477 8.82244 17.1203 8.42338C17.893 8.02432 18.7495 7.81492 19.6191 7.8125H20.7715L19.7559 8.81836C19.6092 8.96648 19.5269 9.16653 19.5269 9.375C19.5269 9.58348 19.6092 9.78352 19.7559 9.93164C19.9052 10.076 20.1048 10.1567 20.3125 10.1567C20.5202 10.1567 20.7198 10.076 20.8691 9.93164L23.2129 7.58789C23.3596 7.43977 23.4419 7.23973 23.4419 7.03125C23.4419 6.82278 23.3596 6.62273 23.2129 6.47461L20.8691 4.13086C20.7173 4.00628 20.5246 3.94261 20.3285 3.95225C20.1324 3.96188 19.9468 4.04412 19.808 4.18298C19.6691 4.32183 19.5869 4.50737 19.5772 4.70351C19.5676 4.89964 19.6313 5.09235 19.7559 5.24414L20.7715 6.25H19.6191C18.4996 6.25197 17.3967 6.52049 16.4016 7.03333C15.4064 7.54618 14.5477 8.28862 13.8965 9.19922L13.7891 9.35547C13.7285 9.43873 13.685 9.53313 13.6611 9.63326C13.6372 9.73338 13.6332 9.83725 13.6496 9.93889C13.6659 10.0405 13.7022 10.1379 13.7563 10.2255C13.8104 10.3131 13.8813 10.3891 13.9648 10.4492ZM11.0352 14.5508C10.9513 14.4907 10.8564 14.4479 10.7559 14.4247C10.6554 14.4015 10.5513 14.3985 10.4496 14.4157C10.3479 14.433 10.2507 14.4702 10.1635 14.5252C10.0762 14.5802 10.0008 14.652 9.94141 14.7363L9.82422 14.8926C9.31888 15.6003 8.65233 16.1776 7.87968 16.5766C7.10703 16.9757 6.25048 17.1851 5.38086 17.1875H3.125C2.9178 17.1875 2.71909 17.2698 2.57257 17.4163C2.42606 17.5628 2.34375 17.7616 2.34375 17.9688C2.34375 18.176 2.42606 18.3747 2.57257 18.5212C2.71909 18.6677 2.9178 18.75 3.125 18.75H5.38086C6.50037 18.748 7.60331 18.4795 8.59844 17.9667C9.59357 17.4538 10.4523 16.7114 11.1035 15.8008L11.2109 15.6445C11.2715 15.5613 11.315 15.4669 11.3389 15.3667C11.3628 15.2666 11.3668 15.1628 11.3504 15.0611C11.3341 14.9595 11.2978 14.8621 11.2437 14.7745C11.1896 14.6869 11.1187 14.6109 11.0352 14.5508Z" fill="currentColor"/></g></symbol><symbol id="socials-ok-noframe" viewBox="0 0 9 16"><g fill="none"><path d="M4.5 2.42035C5.41587 2.42035 6.1607 3.18736 6.1607 4.1305C6.1607 5.0708 5.41587 5.83781 4.5 5.83781C3.58413 5.83781 2.8393 5.0708 2.8393 4.1305C2.8393 3.18736 3.58413 2.42035 4.5 2.42035ZM4.5 8.25816C6.71243 8.25816 8.51106 6.40597 8.51106 4.1305C8.51106 1.85219 6.71243 0 4.5 0C2.28757 0 0.491701 1.85219 0.491701 4.1305C0.491701 6.40597 2.28757 8.25816 4.5 8.25816ZM6.12208 11.6273C6.93863 11.4342 7.72485 11.1018 8.45037 10.6331C8.99934 10.278 9.16486 9.53083 8.82003 8.96551C8.47244 8.39735 7.74967 8.22691 7.19795 8.58485C5.55656 9.6473 3.44344 9.6473 1.79929 8.58485C1.25033 8.22691 0.524805 8.39735 0.179975 8.96551C-0.164855 9.53083 0.000663014 10.278 0.549632 10.6331C1.27515 11.1018 2.06136 11.4342 2.87792 11.6273L0.63515 13.934C0.177216 14.4056 0.177216 15.1726 0.63515 15.6442C0.866875 15.88 1.16481 15.9993 1.4655 15.9993C1.76619 15.9993 2.06688 15.88 2.29861 15.6442L4.5 13.3772L6.70415 15.6442C7.16208 16.1186 7.90416 16.1186 8.36485 15.6442C8.82278 15.1726 8.82278 14.4056 8.36485 13.934L6.12208 11.6273Z" fill="currentColor"/></g></symbol><symbol id="socials-ok-with-frame" viewBox="0 0 30 30"><g fill="none"><path d="M14.5 9.42035C15.4159 9.42035 16.1607 10.1874 16.1607 11.1305C16.1607 12.0708 15.4159 12.8378 14.5 12.8378C13.5841 12.8378 12.8393 12.0708 12.8393 11.1305C12.8393 10.1874 13.5841 9.42035 14.5 9.42035ZM14.5 15.2582C16.7124 15.2582 18.5111 13.406 18.5111 11.1305C18.5111 8.85219 16.7124 7 14.5 7C12.2876 7 10.4917 8.85219 10.4917 11.1305C10.4917 13.406 12.2876 15.2582 14.5 15.2582ZM16.1221 18.6273C16.9386 18.4342 17.7248 18.1018 18.4504 17.6331C18.9993 17.278 19.1649 16.5308 18.82 15.9655C18.4724 15.3974 17.7497 15.2269 17.1979 15.5848C15.5566 16.6473 13.4434 16.6473 11.7993 15.5848C11.2503 15.2269 10.5248 15.3974 10.18 15.9655C9.83515 16.5308 10.0007 17.278 10.5496 17.6331C11.2752 18.1018 12.0614 18.4342 12.8779 18.6273L10.6351 20.934C10.1772 21.4056 10.1772 22.1726 10.6351 22.6442C10.8669 22.88 11.1648 22.9993 11.4655 22.9993C11.7662 22.9993 12.0669 22.88 12.2986 22.6442L14.5 20.3772L16.7042 22.6442C17.1621 23.1186 17.9042 23.1186 18.3649 22.6442C18.8228 22.1726 18.8228 21.4056 18.3649 20.934L16.1221 18.6273Z" fill="currentColor"/></g></symbol><symbol id="socials-reddit-noframe" viewBox="0 0 14 15"><g fill="none"><path d="M8.36171 0C7.91277 0 7.49149 0.244007 7.22128 0.59589C6.95106 0.947774 6.80213 1.37671 6.69362 1.82877C6.52128 2.55565 6.46808 3.36216 6.45532 4.08904C5.19361 4.17894 4.05105 4.57962 3.10211 5.19863C2.717 4.85188 2.25317 4.65925 1.80849 4.66438C1.3021 4.66952 0.821252 4.90325 0.463803 5.38356C-0.219178 6.30051 -0.140455 7.80051 0.651038 8.69178C0.602102 8.96661 0.565931 9.24914 0.565931 9.53425C0.565931 12.5548 3.44679 15 7 15C10.5532 15 13.4341 12.5522 13.4341 9.53425C13.4341 9.24914 13.3979 8.96661 13.349 8.69178C14.1405 7.80051 14.2192 6.30051 13.5362 5.38356C13.1788 4.90325 12.6979 4.66952 12.1915 4.66438C11.7468 4.65925 11.283 4.85188 10.8979 5.19863C9.9532 4.58219 8.81703 4.18151 7.5617 4.08904C7.57873 3.41866 7.62341 2.7226 7.74894 2.19863C7.82766 1.86986 7.92128 1.63099 8.02128 1.5C8.12128 1.36901 8.19362 1.31507 8.36171 1.31507C8.72554 1.31507 8.77235 1.44092 8.9915 1.74658C9.10214 1.90068 9.2298 2.09332 9.43405 2.28082C9.63831 2.46832 9.94044 2.63014 10.2681 2.63014V1.31507C10.1766 1.31507 10.1596 1.3125 10.0979 1.25342C10.0362 1.19435 9.95108 1.05822 9.82554 0.883562C9.57448 0.531678 9.08724 0 8.36171 0ZM11.9021 0.123288C11.0553 0.123288 10.3702 0.950343 10.3702 1.9726C10.3702 2.99486 11.0553 3.82192 11.9021 3.82192C12.749 3.82192 13.4341 2.99486 13.4341 1.9726C13.4341 0.950343 12.749 0.123288 11.9021 0.123288ZM11.9021 0.780822C12.4468 0.780822 12.8894 1.31507 12.8894 1.9726C12.8894 2.63014 12.4468 3.16438 11.9021 3.16438C11.3575 3.16438 10.9149 2.63014 10.9149 1.9726C10.9149 1.31507 11.3575 0.780822 11.9021 0.780822ZM7 5.11644C10.0149 5.11644 12.566 7.14298 12.566 9.53425C12.566 11.9281 10.0149 13.9521 7 13.9521C3.98509 13.9521 1.43402 11.9281 1.43402 9.53425C1.43402 7.14298 3.98509 5.11644 7 5.11644ZM1.82551 5.71233C1.97658 5.7149 2.13402 5.75599 2.28509 5.83562C1.73828 6.33647 1.30423 6.91182 1.00849 7.56164C0.80423 7.05308 0.85955 6.41866 1.11061 6.08219C1.29359 5.83562 1.54679 5.70976 1.82551 5.71233ZM12.1745 5.71233C12.4532 5.70976 12.7064 5.83562 12.8894 6.08219C13.1405 6.41866 13.1958 7.05308 12.9915 7.56164C12.6958 6.91182 12.2617 6.33647 11.7149 5.83562C11.866 5.75599 12.0234 5.7149 12.1745 5.71233ZM4.82127 7.35616C4.27658 7.35616 3.83403 7.89041 3.83403 8.54795C3.83403 9.20548 4.27658 9.73973 4.82127 9.73973C5.36595 9.73973 5.80851 9.20548 5.80851 8.54795C5.80851 7.89041 5.36595 7.35616 4.82127 7.35616ZM9.17873 7.35616C8.63405 7.35616 8.19149 7.89041 8.19149 8.54795C8.19149 9.20548 8.63405 9.73973 9.17873 9.73973C9.72342 9.73973 10.166 9.20548 10.166 8.54795C10.166 7.89041 9.72342 7.35616 9.17873 7.35616ZM4.29361 11.4041C4.64042 12.2697 5.71276 13.1096 7 13.1096C8.28724 13.1096 9.37661 12.2697 9.72342 11.4041C9.09363 11.8947 8.10001 12.226 7 12.226C5.9 12.226 4.9234 11.8947 4.29361 11.4041Z" fill="currentColor"/></g></symbol><symbol id="socials-reddit-with-frame" viewBox="0 0 30 30"><g fill="none"><path d="M16.3617 7C15.9128 7 15.4915 7.24401 15.2213 7.59589C14.9511 7.94777 14.8021 8.37671 14.6936 8.82877C14.5213 9.55565 14.4681 10.3622 14.4553 11.089C13.1936 11.1789 12.0511 11.5796 11.1021 12.1986C10.717 11.8519 10.2532 11.6592 9.80849 11.6644C9.3021 11.6695 8.82125 11.9033 8.4638 12.3836C7.78082 13.3005 7.85955 14.8005 8.65104 15.6918C8.6021 15.9666 8.56593 16.2491 8.56593 16.5342C8.56593 19.5548 11.4468 22 15 22C18.5532 22 21.4341 19.5522 21.4341 16.5342C21.4341 16.2491 21.3979 15.9666 21.349 15.6918C22.1405 14.8005 22.2192 13.3005 21.5362 12.3836C21.1788 11.9033 20.6979 11.6695 20.1915 11.6644C19.7468 11.6592 19.283 11.8519 18.8979 12.1986C17.9532 11.5822 16.817 11.1815 15.5617 11.089C15.5787 10.4187 15.6234 9.7226 15.7489 9.19863C15.8277 8.86986 15.9213 8.63099 16.0213 8.5C16.1213 8.36901 16.1936 8.31507 16.3617 8.31507C16.7255 8.31507 16.7723 8.44092 16.9915 8.74658C17.1021 8.90068 17.2298 9.09332 17.4341 9.28082C17.6383 9.46832 17.9404 9.63014 18.2681 9.63014V8.31507C18.1766 8.31507 18.1596 8.3125 18.0979 8.25342C18.0362 8.19435 17.9511 8.05822 17.8255 7.88356C17.5745 7.53168 17.0872 7 16.3617 7ZM19.9021 7.12329C19.0553 7.12329 18.3702 7.95034 18.3702 8.9726C18.3702 9.99486 19.0553 10.8219 19.9021 10.8219C20.749 10.8219 21.4341 9.99486 21.4341 8.9726C21.4341 7.95034 20.749 7.12329 19.9021 7.12329ZM19.9021 7.78082C20.4468 7.78082 20.8894 8.31507 20.8894 8.9726C20.8894 9.63014 20.4468 10.1644 19.9021 10.1644C19.3575 10.1644 18.9149 9.63014 18.9149 8.9726C18.9149 8.31507 19.3575 7.78082 19.9021 7.78082ZM15 12.1164C18.0149 12.1164 20.566 14.143 20.566 16.5342C20.566 18.9281 18.0149 20.9521 15 20.9521C11.9851 20.9521 9.43402 18.9281 9.43402 16.5342C9.43402 14.143 11.9851 12.1164 15 12.1164ZM9.82551 12.7123C9.97658 12.7149 10.134 12.756 10.2851 12.8356C9.73828 13.3365 9.30423 13.9118 9.00849 14.5616C8.80423 14.0531 8.85955 13.4187 9.11061 13.0822C9.29359 12.8356 9.54679 12.7098 9.82551 12.7123ZM20.1745 12.7123C20.4532 12.7098 20.7064 12.8356 20.8894 13.0822C21.1405 13.4187 21.1958 14.0531 20.9915 14.5616C20.6958 13.9118 20.2617 13.3365 19.7149 12.8356C19.866 12.756 20.0234 12.7149 20.1745 12.7123ZM12.8213 14.3562C12.2766 14.3562 11.834 14.8904 11.834 15.5479C11.834 16.2055 12.2766 16.7397 12.8213 16.7397C13.366 16.7397 13.8085 16.2055 13.8085 15.5479C13.8085 14.8904 13.366 14.3562 12.8213 14.3562ZM17.1787 14.3562C16.6341 14.3562 16.1915 14.8904 16.1915 15.5479C16.1915 16.2055 16.6341 16.7397 17.1787 16.7397C17.7234 16.7397 18.166 16.2055 18.166 15.5479C18.166 14.8904 17.7234 14.3562 17.1787 14.3562ZM12.2936 18.4041C12.6404 19.2697 13.7128 20.1096 15 20.1096C16.2872 20.1096 17.3766 19.2697 17.7234 18.4041C17.0936 18.8947 16.1 19.226 15 19.226C13.9 19.226 12.9234 18.8947 12.2936 18.4041Z" fill="currentColor"/></g></symbol><symbol id="socials-vk-noframe" viewBox="0 0 16 9"><g fill="none"><path d="M15.8574 8.02743C15.8144 7.95645 15.5484 7.38659 14.2683 6.21531C12.9282 4.98883 13.1082 5.18799 14.7223 3.06728C15.7054 1.77572 16.0984 0.986988 15.9754 0.649804C15.8584 0.328395 15.1353 0.413184 15.1353 0.413184L12.7312 0.426986C12.7312 0.426986 12.5531 0.403324 12.4201 0.481212C12.2911 0.558114 12.2081 0.735579 12.2081 0.735579C12.2081 0.735579 11.8271 1.7353 11.3191 2.58516C10.248 4.37855 9.81894 4.4732 9.64393 4.36179C9.2369 4.10249 9.33891 3.31869 9.33891 2.76263C9.33891 1.02445 9.60593 0.299803 8.81787 0.112478C8.55585 0.0503654 8.36384 0.00895679 7.69479 0.00205536C6.83672 -0.00681791 6.10967 0.00501311 5.69864 0.203183C5.42462 0.335296 5.21361 0.630086 5.34262 0.646846C5.50163 0.667551 5.86165 0.74248 6.05267 0.998819C6.29969 1.3291 6.29069 2.07248 6.29069 2.07248C6.29069 2.07248 6.4327 4.11827 5.95966 4.37263C5.63464 4.54714 5.1896 4.19122 4.23453 2.56347C3.7455 1.73037 3.37547 0.808537 3.37547 0.808537C3.37547 0.808537 3.30447 0.636987 3.17746 0.545297C3.02345 0.433888 2.80743 0.398395 2.80743 0.398395L0.521262 0.412198C0.521262 0.412198 0.178236 0.422057 0.0522271 0.568959C-0.0597811 0.700086 0.0432264 0.970227 0.0432264 0.970227C0.0432264 0.970227 1.83336 5.09827 3.85951 7.17954C5.71864 9.0873 7.8288 8.96208 7.8288 8.96208H8.78487C8.78487 8.96208 9.07389 8.93054 9.2209 8.77377C9.35691 8.62983 9.35191 8.35969 9.35191 8.35969C9.35191 8.35969 9.33291 7.09475 9.92895 6.90842C10.516 6.72504 11.2701 8.13095 12.0691 8.67222C12.6732 9.08138 13.1322 8.99166 13.1322 8.99166L15.2693 8.96208C15.2693 8.96208 16.3874 8.89406 15.8574 8.02743Z" fill="currentColor"/></g></symbol><symbol id="socials-vk-with-frame" viewBox="0 0 30 30"><g fill="none"><path d="M22.8574 19.0274C22.8144 18.9564 22.5484 18.3866 21.2683 17.2153C19.9282 15.9888 20.1082 16.188 21.7223 14.0673C22.7054 12.7757 23.0984 11.987 22.9754 11.6498C22.8584 11.3284 22.1353 11.4132 22.1353 11.4132L19.7312 11.427C19.7312 11.427 19.5531 11.4033 19.4201 11.4812C19.2911 11.5581 19.2081 11.7356 19.2081 11.7356C19.2081 11.7356 18.8271 12.7353 18.3191 13.5852C17.248 15.3785 16.8189 15.4732 16.6439 15.3618C16.2369 15.1025 16.3389 14.3187 16.3389 13.7626C16.3389 12.0245 16.6059 11.2998 15.8179 11.1125C15.5559 11.0504 15.3638 11.009 14.6948 11.0021C13.8367 10.9932 13.1097 11.005 12.6986 11.2032C12.4246 11.3353 12.2136 11.6301 12.3426 11.6468C12.5016 11.6676 12.8617 11.7425 13.0527 11.9988C13.2997 12.3291 13.2907 13.0725 13.2907 13.0725C13.2907 13.0725 13.4327 15.1183 12.9597 15.3726C12.6346 15.5471 12.1896 15.1912 11.2345 13.5635C10.7455 12.7304 10.3755 11.8085 10.3755 11.8085C10.3755 11.8085 10.3045 11.637 10.1775 11.5453C10.0234 11.4339 9.80743 11.3984 9.80743 11.3984L7.52126 11.4122C7.52126 11.4122 7.17824 11.4221 7.05223 11.569C6.94022 11.7001 7.04323 11.9702 7.04323 11.9702C7.04323 11.9702 8.83336 16.0983 10.8595 18.1795C12.7186 20.0873 14.8288 19.9621 14.8288 19.9621H15.7849C15.7849 19.9621 16.0739 19.9305 16.2209 19.7738C16.3569 19.6298 16.3519 19.3597 16.3519 19.3597C16.3519 19.3597 16.3329 18.0948 16.929 17.9084C17.516 17.725 18.2701 19.131 19.0691 19.6722C19.6732 20.0814 20.1322 19.9917 20.1322 19.9917L22.2693 19.9621C22.2693 19.9621 23.3874 19.8941 22.8574 19.0274Z" fill="currentColor"/></g></symbol><symbol id="sun" viewBox="0 0 20 20"><g fill="none"><path d="M13.545 6.45505C12.6455 5.55558 11.3757 4.97357 9.99999 4.97357C8.62433 4.97357 7.35449 5.52912 6.45502 6.45505C5.55555 7.35451 4.97354 8.62435 4.97354 10C4.97354 11.3757 5.55555 12.6455 6.45502 13.545C7.35449 14.4444 8.62433 15.0265 9.99999 15.0265C11.3757 15.0265 12.6455 14.4709 13.545 13.545C14.4444 12.6455 15.0265 11.3757 15.0265 10C15.0265 8.62435 14.4709 7.35451 13.545 6.45505ZM12.5926 12.5926C11.9312 13.254 11.0053 13.6508 9.99999 13.6508C8.9947 13.6508 8.06878 13.254 7.4074 12.5926C6.74603 11.9312 6.3492 11.0053 6.3492 10C6.3492 8.99472 6.74603 8.0688 7.4074 7.40742C8.06878 6.74605 8.9947 6.34922 9.99999 6.34922C11.0053 6.34922 11.9312 6.74605 12.5926 7.40742C13.254 8.0688 13.6508 8.99472 13.6508 10C13.6508 11.0053 13.254 11.9312 12.5926 12.5926Z" fill="currentColor"/><path d="M19.3122 9.3122H17.2751C16.9048 9.3122 16.5873 9.62966 16.5873 10C16.5873 10.3704 16.9048 10.6879 17.2751 10.6879H19.3122C19.6825 10.6879 20 10.3704 20 10C20 9.62966 19.6825 9.3122 19.3122 9.3122Z" fill="currentColor"/><path d="M9.99999 16.5873C9.62962 16.5873 9.31216 16.9048 9.31216 17.2751V19.3122C9.31216 19.6825 9.62962 20 9.99999 20C10.3704 20 10.6878 19.6825 10.6878 19.3122V17.2751C10.6878 16.9048 10.3704 16.5873 9.99999 16.5873Z" fill="currentColor"/><path d="M17.0635 16.1111L15.6085 14.656C15.3704 14.3915 14.9207 14.3915 14.6561 14.656C14.3916 14.9206 14.3916 15.3439 14.6561 15.6084L16.1111 17.0634C16.3757 17.328 16.799 17.328 17.0635 17.0634C17.3281 16.7989 17.3281 16.3756 17.0635 16.1111Z" fill="currentColor"/><path d="M9.99999 0C9.62962 0 9.31216 0.317459 9.31216 0.687829V2.72486C9.31216 3.09523 9.62962 3.41269 9.99999 3.41269C10.3704 3.41269 10.6878 3.09523 10.6878 2.72486V0.687829C10.6878 0.317459 10.3704 0 9.99999 0Z" fill="currentColor"/><path d="M17.0899 2.93653C16.8254 2.67198 16.4021 2.67198 16.1376 2.93653L14.6825 4.39155C14.418 4.6561 14.418 5.07938 14.6825 5.34393C14.9206 5.60848 15.3704 5.60848 15.6349 5.34393L17.0899 3.88891C17.3545 3.62436 17.3545 3.20108 17.0899 2.93653Z" fill="currentColor"/><path d="M2.72487 9.3122H0.687831C0.31746 9.3122 0 9.62966 0 10C0 10.3704 0.291005 10.6879 0.687831 10.6879H2.72487C3.09524 10.6879 3.4127 10.3704 3.4127 10C3.4127 9.62966 3.09524 9.3122 2.72487 9.3122Z" fill="currentColor"/><path d="M5.31746 14.656C5.07937 14.3915 4.62963 14.3915 4.36508 14.656L2.91005 16.1111C2.6455 16.3756 2.6455 16.7989 2.91005 17.0634C3.1746 17.328 3.59788 17.328 3.86243 17.0634L5.31746 15.6084C5.58201 15.3439 5.58201 14.9206 5.31746 14.656Z" fill="currentColor"/><path d="M5.31746 4.39155L3.86243 2.93653C3.59788 2.67198 3.1746 2.67198 2.91005 2.93653C2.6455 3.20108 2.6455 3.62436 2.91005 3.88891L4.36508 5.34393C4.62963 5.60848 5.05291 5.60848 5.31746 5.34393C5.58201 5.07938 5.58201 4.6561 5.31746 4.39155Z" fill="currentColor"/></g></symbol></svg>